<?xml version="1.0" encoding="UTF-8"?>
<svg id="Capa_1" data-name="Capa 1" xmlns="http://www.w3.org/2000/svg" viewBox="0 0 1077.37 1071.37">
  <defs>
    <style>
      .cls-1 {
        fill: #fff;
      }

      .cls-2 {
        fill: #cca23f;
      }
    </style>
  </defs>
  <path class="cls-1" d="M347.15,438.6c152.22-12.61,164.51,215.2,17.81,225.1-148.01,9.99-165.53-212.85-17.81-225.1ZM341.71,488.94c-56.12,9.6-57.67,113.41,2.65,123.66,92.58,15.73,95.18-140.39-2.65-123.66h0Z"/>
  <path class="cls-2" d="M538.55,0c184.87-1.35,357.97,93.97,456.21,249.3,134.39,212.5,102.68,501.24-79.52,674.9-5.66-4.49-8.74-8.55-5.33-15.85,2.32-4.97,27.11-28.41,33.17-36.01C1290.08,436.77,829.94-160.58,324.65,59.87c-11.62,5.07-36.66,21.66-45.41,23.92-6.55,1.7-16.81-3.87-12.7-10.25,3.18-4.95,51.02-26.59,59.99-30.4C394.5,14.31,464.47.54,538.55,0Z"/>
  <path class="cls-2" d="M948.7,291.88l11.7-.37c156.23,274.17,18.54,623.78-284.35,712.53-151.44,44.37-314.16,13.71-438.53-82.56-6.65-5.15-43.5-35.71-45.39-39.82-1.35-2.93-2.05-5.01,0-7.88l7.7-5.14c67.58,68.33,158.42,118.08,253.74,134.51,382.84,66,671.12-315.6,513.14-669.97-3.46-7.76-21.91-35.94-17.99-41.3h-.02Z"/>
  <path class="cls-1" d="M594.92,485.65v45.19h66.45v42.53h-66.45v87.72h-53.16v-220.63h139.55l3.57,4.41c-.72,12.72,4.42,30.67-3.57,40.78h-86.39Z"/>
  <path class="cls-2" d="M23.04,438.19c-15.65,103.92-7.71,210.3,34.48,307.1,61.01,139.98,183.19,250.94,330.08,294.59,22.58,6.71,52.51,9.16,71.87,15.85,6.87,2.37,10.59,8.29,13.19,14.7-6.85,5.05-72.14-11.73-84.43-15.22-115.75-32.89-214.13-102.1-284.56-199.23C15.48,734.38-19.11,583.58,10.23,435.2l12.81,2.98h0Z"/>
  <polygon class="cls-1" points="754.41 661.09 754.41 444.45 758.4 440.46 806.25 440.46 810.24 444.45 810.24 657.1 806.25 661.09 754.41 661.09"/>
  <path class="cls-2" d="M637.45,57.7c1.38,6.01-.88,4.32-3.32,6.11-14.41,10.53-46.52-.14-64.35-.91-235.55-10.22-436.53,135.29-493.56,363.93l-12.94.34C99.29,254.63,234.83,114.88,403.54,66.99c77.13-21.89,155.08-21.93,233.91-9.3h0Z"/>
  <path class="cls-2" d="M772.29,334.76c37-7.69,62.01,30.8,39.33,60.58-27.3,35.86-85.74-.97-62.17-43.56,3.67-6.63,15.43-15.48,22.83-17.02h0Z"/>
</svg>