<?xml version="1.0" encoding="UTF-8"?>
<svg id="Capa_1" data-name="Capa 1" xmlns="http://www.w3.org/2000/svg" xmlns:xlink="http://www.w3.org/1999/xlink" viewBox="0 0 501.16 498.07">
  <defs>
    <style>
      .cls-1 {
        fill: #cca23f;
      }

      .cls-2 {
        clip-path: url(#clippath-2);
      }

      .cls-3 {
        clip-path: url(#clippath-1);
      }

      .cls-4 {
        clip-path: url(#clippath);
      }

      .cls-5 {
        fill: none;
      }

      .cls-6 {
        clip-path: url(#clippath-3);
      }
    </style>
    <clipPath id="clippath">
      <rect class="cls-5" x="346.46" y="155.15" width="34.97" height="34.98"/>
    </clipPath>
    <clipPath id="clippath-1">
      <path class="cls-5" d="m363.95,155.15c-9.66,0-17.49,7.83-17.49,17.49,0,9.66,7.83,17.49,17.49,17.49,9.66,0,17.49-7.83,17.49-17.49s-7.83-17.49-17.49-17.49h0Z"/>
    </clipPath>
    <clipPath id="clippath-2">
      <rect class="cls-5" x="124.15" width="376.84" height="430.37"/>
    </clipPath>
    <clipPath id="clippath-3">
      <rect class="cls-5" y="201.47" width="221.14" height="296.08"/>
    </clipPath>
  </defs>
  <path d="m166.46,307.75c-9.54,0-18.28-2.21-26.22-6.64-7.94-4.43-14.24-10.61-18.91-18.55-4.67-7.94-7-16.87-7-26.79s2.33-18.8,7-26.7c4.67-7.89,10.97-14.06,18.91-18.49,7.94-4.42,16.68-6.64,26.22-6.64s18.28,2.21,26.22,6.64c7.94,4.42,14.19,10.59,18.76,18.49,4.56,7.9,6.85,16.81,6.85,26.7s-2.32,18.85-6.94,26.79c-4.61,7.94-10.87,14.12-18.76,18.55-7.88,4.42-16.59,6.64-26.13,6.64h0Zm0-22.52c8.08,0,14.55-2.68,19.4-8.06,4.86-5.39,7.31-12.53,7.31-21.4s-2.44-16.09-7.31-21.43c-4.85-5.35-11.32-8.03-19.4-8.03s-14.72,2.65-19.58,7.94c-4.85,5.3-7.27,12.47-7.27,21.52s2.42,16.11,7.27,21.46c4.86,5.33,11.4,8,19.58,8h0Z"/>
  <path d="m318.22,205.39v19.76h-41.31v21.37h30.91v19.22h-30.91v41.01h-24.7v-101.35h66.01Z"/>
  <path d="m376.1,205.39v101.35h-24.7v-101.35h24.7Z"/>
  <g class="cls-4">
    <g class="cls-3">
      <path class="cls-1" d="m346.46,155.15h34.97v34.98h-34.97v-34.98Z"/>
    </g>
  </g>
  <g class="cls-2">
    <path class="cls-1" d="m249.97.22c4.26,0,7.34-.04,10.4,0,7.5.1,14.93.97,22.35,1.83,19.27,2.23,37.85,7.02,56.02,13.74,23.6,8.74,45.36,20.82,65.29,36.18,12.47,9.59,23.96,20.25,34.36,32.05,13.92,15.75,25.78,33.2,35.31,51.94,6.79,13.34,12.43,27.13,16.72,41.45,2.89,9.61,5.37,19.36,6.93,29.35,1.18,7.54,2.09,15.08,2.86,22.66,1.03,10.36,1.17,20.72.74,31.07-.42,9.93-1.5,19.81-3.1,29.67-6.89,42.36-23.63,80.35-49.86,114.24-6.48,8.35-13.54,16.19-21.02,23.67-1.3,1.28-1.82.79-2.61-.32-2.83-3.89-2.79-3.8.57-7.26,23.06-23.78,40.98-50.9,52.99-81.87,3.79-9.75,7.11-19.64,9.62-29.76,1.9-7.72,3.47-15.52,4.56-23.41,1.26-9.12,2.11-18.25,2.46-27.48.16-4.3.54-8.65.26-12.93-.49-7.54-.81-15.08-1.71-22.59-1.41-11.9-3.65-23.69-6.7-35.27-3.35-12.68-7.76-25.05-13.18-36.99-9.96-22.05-22.91-42.2-38.88-60.38-22.4-25.52-48.93-45.59-79.62-60.16-13.18-6.26-26.89-11.23-40.94-15.02-9.69-2.61-19.56-4.66-29.57-5.9-6.81-.85-13.62-1.4-20.43-1.93-7.4-.58-14.8-.52-22.16-.26-6.52.23-13.05.81-19.54,1.67-6.83.93-13.62,2.02-20.37,3.36-10.65,2.12-21.13,4.99-31.36,8.61-14.45,5.06-28.39,11.51-41.61,19.25-.7.41-1.07.43-1.74-.18-3.89-3.69-3.86-4.08.75-6.69,18.45-10.43,38.13-18.49,58.59-24,9.71-2.63,19.56-4.68,29.57-5.99,6.1-.79,12.19-1.28,18.29-1.91,5.67-.64,11.31-.08,15.77-.42h0Z"/>
  </g>
  <path class="cls-1" d="m476.47,247.06c-.06,8.29.23,14.45-.52,20.55-1.14,9.27-2.14,18.56-4.06,27.75-4.17,19.95-10.98,39.25-20.25,57.4-8.3,16.28-18.51,31.28-30.51,45.08-16.65,19.15-35.98,35.01-58.01,47.59-14.32,8.18-29.5,14.77-45.26,19.64-11.34,3.51-22.85,6.32-34.62,7.96-6.71.93-13.48,1.58-20.27,2.02-6.69.43-13.38.43-20.05.26-9.52-.26-18.97-1.39-28.38-2.8-8.9-1.34-17.66-3.32-26.27-5.77-16.99-4.82-33.36-11.63-48.75-20.29-17.77-9.96-33.87-22.13-48.4-36.37-3.08-3.03-3.06-2.89.4-5.51,1.42-1.09,2.13-.79,3.26.31,14.99,15.06,31.83,27.67,50.49,37.88,16.23,8.91,33.55,15.69,51.52,20.17,10.68,2.67,21.45,4.78,32.47,5.55,4.46.32,8.9.61,13.36.89,3.46.21,6.89.51,10.34.35,12.26-.57,24.5-1.38,36.59-3.63,11.93-2.21,23.63-5.19,35-9.28,20.18-7.24,39.18-17.39,56.41-30.14,15.04-11.1,28.62-24.06,40.42-38.57,10.97-13.44,20.31-28.12,27.85-43.74,5.62-11.67,10.06-23.76,13.6-36.22,2.84-9.99,4.85-20.15,6.33-30.4.73-5.03.83-10.14,1.3-15.19.55-5.64.49-11.31.39-16.98-.22-14.8-1.98-29.42-5.13-43.91-3.48-16.01-8.83-31.35-15.69-46.19-2.59-5.56-5.45-11-8.57-16.28-.86-1.48-.57-2.19.58-3.02.31-.24.65-.45.91-.75,1.58-1.7,2.45-1.26,3.55.71,9.74,17.09,17.23,35.1,22.37,54.06,2.64,9.79,4.71,19.7,5.9,29.81,1.1,9.69,2.01,19.42,1.71,27.07h0Z"/>
  <g class="cls-6">
    <path class="cls-1" d="m5.51,201.84c1.58.53,3.06.83,4.33,1.5,2.19,1.14,1.71,3.18,1.34,5.11-1.48,7.56-2.33,15.18-2.9,22.88-.58,7.52-1.07,15.03-.85,22.56.23,8.11.89,16.2,1.77,24.28,1.24,11.37,3.44,22.53,6.26,33.59,4.3,16.84,10.56,32.95,18.46,48.42,12.21,23.96,27.98,45.33,47.23,64.11,15.56,15.2,33.08,28.24,52.11,38.78,14.55,8.08,29.73,14.65,45.63,19.52,10.44,3.2,20.98,5.86,31.78,7.56.99.16,1.99.3,2.99.49,1.55.3,3.04.71,3.92,2.45.87,1.7,2.21,3.14,3.12,4.98-71.38-9.99-129.63-42.71-172-101.37C6.46,338.21-6.67,272.76,5.51,201.84h0Z"/>
  </g>
  <path class="cls-1" d="m297.38,27.67c-2.35,1.66-4.21,2.83-5.89,4.21-1.12.93-2.13.23-3.12.08-6.95-1.2-13.92-1.94-20.94-2.51-7.12-.58-14.25-1.07-21.4-.79-9.14.35-18.28,1.06-27.33,2.39-10.74,1.55-21.34,3.89-31.73,7.03-28.97,8.77-55,22.96-78.2,42.39-21.46,17.98-38.8,39.34-52.18,63.88-8.9,16.3-15.72,33.48-19.94,51.61-.51,2.17-1.48,2.63-3.24,1.94-1.01-.39-2.04-.12-3.44-.49,15.68-61.6,49.72-109.82,104.41-142.47,50.37-30.08,104.79-38.45,162.98-27.26h0Z"/>
</svg>